<?xml version="1.0" encoding="UTF-8"?><svg id="Layer_1" xmlns="http://www.w3.org/2000/svg" viewBox="0 0 1522.33 577.47"><defs><style>.cls-1{fill:#f30;}</style></defs><g><g><path class="cls-1" d="M379.76,168.21l-79.38,79.31c-10.59,10.59-27.89,10.66-38.49,0l-79.43-79.49c-6.55,5.36-12.39,11.32-17.73,17.79l79.4,79.46c9.23,9.23,21.09,14.25,33.2,15.13,1.27,.09,2.55,.15,3.82,.15s2.54-.06,3.81-.15c12.09-.87,23.95-5.9,33.18-15.13l79.53-79.46c-5.33-6.47-11.2-12.3-17.91-17.61Z"/><path class="cls-1" d="M182.76,409.15l79.27-79.2c10.59-10.59,27.89-10.66,38.49,0l79.15,79.21c6.74-5.08,12.67-11.04,18.01-17.51l-79.4-79.46c-9.23-9.23-21.09-14.25-33.2-15.13-1.27-.09-2.55-.15-3.82-.15s-2.54,.06-3.81,.15c-12.09,.87-23.95,5.9-33.18,15.13l-79.53,79.46c5.33,6.47,11.54,12.3,18.02,17.5Z"/></g><g><g><rect class="cls-1" x="120.89" y="276.13" width="81.54" height="25.11"/><rect class="cls-1" x="359.98" y="276.13" width="81.54" height="25.11"/></g><rect class="cls-1" x="268.65" y="367.51" width="25.11" height="81.54"/><rect class="cls-1" x="268.65" y="128.42" width="25.11" height="81.54"/></g></g><g><polygon class="cls-1" points="669.63 162.14 644.43 162.14 601.43 226.99 558.31 162.14 533.23 162.14 588.94 244.33 531.72 328.6 556.92 328.6 601.43 261.78 645.93 328.6 671.01 328.6 613.91 244.33 669.63 162.14"/><path class="cls-1" d="M716.33,225.78c5.55-3.97,12.6-5.95,21.15-5.95,7.55,0,14.28,2.01,20.17,6.01,5.89,4.01,10.19,9.63,12.89,16.88l20.35-6.13c-3.24-11.25-9.61-20.11-19.13-26.59-9.52-6.47-20.86-9.71-34.04-9.71-12.49,0-23.16,2.8-32.02,8.38-8.86,5.59-15.68,13.33-20.46,23.23-4.78,9.9-7.21,21.33-7.28,34.27,.08,12.72,2.44,24.04,7.11,33.99,4.66,9.94,11.4,17.74,20.23,23.41,8.82,5.66,19.55,8.5,32.19,8.5s24-3.08,33.18-9.25c9.17-6.16,15.91-15.07,20.23-26.7l-20.81-5.43c-2.85,7.09-6.96,12.5-12.31,16.24-5.36,3.74-12.12,5.61-20.29,5.61-12.41,0-21.75-4.26-28.03-12.77-6.28-8.51-9.5-19.71-9.65-33.58,.08-9.02,1.46-17.01,4.16-23.98,2.7-6.97,6.82-12.45,12.37-16.42Z"/><path class="cls-1" d="M909.37,224.68c-3.55-8.17-9.38-14.27-17.51-18.32-8.13-4.05-17.86-6.07-29.19-6.07-14.1,0-25.47,3.12-34.1,9.36-8.63,6.24-14.45,14.84-17.45,25.78l19.54,5.9c2.31-7.63,6.3-13.18,11.96-16.65,5.66-3.47,12.27-5.2,19.82-5.2,11.4,0,19.42,2.68,24.04,8.03,4.14,4.8,6.25,11.99,6.56,21.33-4.42,.6-8.95,1.22-13.73,1.85-7.55,1-14.99,2.1-22.31,3.29-7.32,1.2-13.95,2.6-19.88,4.22-6.32,1.85-11.77,4.39-16.36,7.63-4.59,3.24-8.11,7.25-10.58,12.02-2.47,4.78-3.7,10.44-3.7,16.99s1.6,12.87,4.8,18.5c3.2,5.63,7.94,10.15,14.22,13.58,6.28,3.43,14.08,5.15,23.41,5.15,12.02,0,22.27-2.56,30.75-7.69,6.17-3.73,11.32-8.84,15.49-15.25v19.47h18.26v-77.22c0-4.93-.23-9.65-.69-14.16-.46-4.51-1.58-8.69-3.35-12.54Zm-18.5,61.38c-1,5.16-3.16,9.92-6.47,14.28-3.31,4.35-7.69,7.86-13.12,10.52-5.43,2.66-11.85,3.99-19.25,3.99-5.94,0-10.73-.96-14.39-2.89-3.66-1.93-6.36-4.43-8.09-7.51-1.73-3.08-2.6-6.32-2.6-9.71,0-3.85,.91-7.11,2.72-9.77,1.81-2.66,4.2-4.85,7.17-6.59,2.97-1.73,6.14-3.14,9.54-4.22,4.62-1.31,9.81-2.43,15.55-3.35,5.74-.92,11.87-1.81,18.38-2.66,4.14-.54,8.39-1.16,12.61-1.76-.04,1.97-.1,4.23-.18,6.85-.16,4.7-.77,8.98-1.85,12.83Z"/><rect class="cls-1" x="945.78" y="158.68" width="20.58" height="169.92"/><rect class="cls-1" x="1003.34" y="160.41" width="20.58" height="21.27"/><rect class="cls-1" x="1003.34" y="203.76" width="20.58" height="124.84"/><path class="cls-1" d="M1145.93,208.9c-8.36-5.74-18.32-8.61-29.88-8.61s-21.6,2.87-29.65,8.61c-2.65,1.89-5,4.08-7.22,6.42v-53.18h-20.69v166.46h18.38v-14.31c2.8,3.4,5.91,6.47,9.48,9.05,8.01,5.82,17.88,8.73,29.59,8.73s21.64-2.89,30-8.67c8.36-5.78,14.78-13.66,19.25-23.64,4.47-9.98,6.7-21.21,6.7-33.7s-2.24-23.7-6.7-33.64c-4.47-9.94-10.89-17.78-19.25-23.52Zm.06,81.15c-2.7,7.13-6.76,12.77-12.2,16.93-5.43,4.16-12.23,6.24-20.4,6.24s-15.3-2.02-20.69-6.07c-5.39-4.05-9.38-9.63-11.96-16.76-2.58-7.13-3.87-15.24-3.87-24.33s1.31-17.3,3.93-24.39c2.62-7.09,6.59-12.62,11.91-16.59,5.32-3.97,12.02-5.95,20.11-5.95s15.45,2.08,20.92,6.24c5.47,4.16,9.55,9.79,12.25,16.88,2.7,7.09,4.05,15.03,4.05,23.81s-1.35,16.86-4.05,23.99Z"/><path class="cls-1" d="M1284,269.53c0,7.17-.83,13.45-2.48,18.84-1.66,5.4-3.99,9.85-6.99,13.35-3.01,3.51-6.61,6.15-10.81,7.92-4.2,1.77-8.88,2.66-14.05,2.66-6.55,0-12-1.27-16.36-3.81-4.35-2.54-7.82-6.01-10.4-10.4-2.58-4.39-4.41-9.32-5.49-14.79-1.08-5.47-1.62-11.14-1.62-16.99v-62.54h-20.81v69.01c0,4.7,.44,9.75,1.33,15.14,.89,5.39,2.41,10.67,4.57,15.84,2.16,5.16,5.12,9.87,8.9,14.1,3.77,4.24,8.51,7.63,14.22,10.17,5.7,2.54,12.6,3.81,20.69,3.81,10.71,0,20.01-2.33,27.92-6.99,5.42-3.2,9.95-7.42,13.7-12.53v16.29h18.38v-124.84h-20.69v65.77Z"/><path class="cls-1" d="M1389.54,203.01c-4.24,.27-8.4,1.08-12.48,2.43-4.09,1.35-7.74,3.33-10.98,5.95-2.93,2.08-5.57,4.74-7.92,7.98-1,1.38-1.88,2.84-2.72,4.32v-19.93h-18.38v124.84h20.69v-62.65c0-4.93,.42-9.77,1.27-14.51,.85-4.74,2.37-9.13,4.57-13.18,2.2-4.05,5.3-7.53,9.31-10.46,4.39-3.16,9.17-5.01,14.33-5.55,5.16-.54,9.9-.27,14.22,.81v-19.3c-3.7-.77-7.67-1.02-11.91-.75Z"/></g><g><path class="cls-1" d="M559.45,447.77c-5.12,0-9.73-.87-13.83-2.61-4.1-1.74-7.48-4.23-10.14-7.46-2.66-3.23-4.39-7.05-5.2-11.47l9.24-1.46c1.17,4.55,3.61,8.11,7.31,10.67,3.7,2.56,8.06,3.84,13.08,3.84,3.25,0,6.17-.51,8.79-1.53,2.61-1.02,4.69-2.48,6.25-4.39,1.56-1.91,2.33-4.17,2.33-6.78,0-1.57-.28-2.94-.85-4.12-.57-1.17-1.32-2.16-2.26-2.96-.94-.8-2.01-1.49-3.21-2.06-1.21-.57-2.46-1.05-3.76-1.46l-18.43-5.47c-2.01-.57-3.95-1.31-5.82-2.23-1.87-.92-3.55-2.07-5.02-3.46-1.47-1.39-2.64-3.07-3.51-5.04-.87-1.97-1.31-4.3-1.31-6.98,0-4.25,1.11-7.9,3.34-10.95,2.23-3.05,5.25-5.36,9.06-6.95,3.82-1.59,8.12-2.38,12.9-2.38,4.85,.03,9.2,.9,13.03,2.58,3.83,1.69,7.01,4.11,9.54,7.26,2.53,3.15,4.23,6.91,5.1,11.3l-9.49,1.66c-.5-2.91-1.62-5.44-3.34-7.58-1.72-2.14-3.87-3.79-6.45-4.94-2.58-1.16-5.41-1.75-8.49-1.78-2.95-.03-5.61,.44-7.98,1.43-2.38,.99-4.27,2.34-5.67,4.07-1.41,1.72-2.11,3.69-2.11,5.9s.64,4.03,1.91,5.37c1.27,1.34,2.84,2.4,4.69,3.19,1.86,.79,3.67,1.43,5.45,1.93l13.76,3.97c1.57,.44,3.39,1.04,5.45,1.81,2.06,.77,4.06,1.85,6,3.24,1.94,1.39,3.55,3.23,4.82,5.52,1.27,2.29,1.91,5.18,1.91,8.66s-.7,6.58-2.08,9.29c-1.39,2.71-3.32,4.99-5.8,6.83-2.48,1.84-5.36,3.23-8.64,4.17-3.28,.94-6.79,1.41-10.54,1.41Z"/><path class="cls-1" d="M603.98,446.26v-72.3h8.13l27.31,57.59,27.16-57.59h8.23v72.25h-8.49v-52.62l-24.55,52.67h-4.77l-24.55-52.67v52.67h-8.48Z"/><path class="cls-1" d="M690.79,446.26l24.2-72.3h12.45l24.2,72.3h-9.29l-22.64-67.07h2.81l-22.44,67.07h-9.29Zm11.65-16.92v-8.38h37.55v8.38h-37.55Z"/><path class="cls-1" d="M767.6,446.26v-72.3h28.57c.7,0,1.54,.02,2.51,.07s1.91,.16,2.81,.33c3.92,.6,7.2,1.95,9.87,4.04,2.66,2.09,4.66,4.72,6,7.88,1.34,3.16,2.01,6.65,2.01,10.47,0,5.62-1.46,10.48-4.37,14.56-2.91,4.08-7.18,6.65-12.8,7.68l-3.41,.55h-22.24v26.71h-8.94Zm8.94-35.19h19.33c.64,0,1.36-.03,2.18-.1,.82-.07,1.6-.18,2.34-.35,2.31-.54,4.18-1.51,5.62-2.94,1.44-1.42,2.5-3.09,3.19-5.02,.69-1.92,1.03-3.89,1.03-5.9s-.34-3.97-1.03-5.9c-.69-1.92-1.75-3.6-3.19-5.02-1.44-1.42-3.31-2.4-5.62-2.94-.74-.17-1.52-.28-2.34-.35-.82-.07-1.55-.1-2.18-.1h-19.33v28.62Zm34.09,35.19l-14.26-29.42,8.84-2.71,15.66,32.13h-10.24Z"/><path class="cls-1" d="M857.47,446.26v-63.81h-24.65v-8.48h58.24v8.48h-24.65v63.81h-8.94Z"/><path class="cls-1" d="M930.02,446.26v-72.3h8.13l27.31,57.59,27.16-57.59h8.23v72.25h-8.49v-52.62l-24.55,52.67h-4.77l-24.55-52.67v52.67h-8.48Z"/><path class="cls-1" d="M1016.82,446.26l24.2-72.3h12.45l24.2,72.3h-9.29l-22.64-67.07h2.81l-22.44,67.07h-9.29Zm11.65-16.92v-8.38h37.55v8.38h-37.55Z"/><path class="cls-1" d="M1093.64,446.26v-72.3h28.57c.7,0,1.54,.02,2.51,.07s1.91,.16,2.81,.33c3.92,.6,7.2,1.95,9.87,4.04,2.66,2.09,4.66,4.72,6,7.88,1.34,3.16,2.01,6.65,2.01,10.47s-.68,7.35-2.03,10.52c-1.36,3.16-3.36,5.78-6.03,7.86-2.66,2.08-5.93,3.41-9.81,4.02-.9,.13-1.84,.23-2.81,.3-.97,.07-1.81,.1-2.51,.1h-19.63v26.71h-8.94Zm8.94-35.19h19.33c.64,0,1.36-.03,2.18-.1,.82-.07,1.6-.18,2.34-.35,2.31-.54,4.18-1.51,5.62-2.94,1.44-1.42,2.5-3.09,3.19-5.02,.69-1.92,1.03-3.89,1.03-5.9s-.34-3.97-1.03-5.9-1.75-3.6-3.19-5.02c-1.44-1.42-3.31-2.4-5.62-2.94-.74-.17-1.52-.28-2.34-.35-.82-.07-1.55-.1-2.18-.1h-19.33v28.62Z"/><path class="cls-1" d="M1162.37,446.26v-72.3h28.57c.7,0,1.54,.02,2.51,.07s1.91,.16,2.81,.33c3.92,.6,7.2,1.95,9.87,4.04,2.66,2.09,4.66,4.72,6,7.88,1.34,3.16,2.01,6.65,2.01,10.47s-.68,7.35-2.03,10.52c-1.36,3.16-3.36,5.78-6.03,7.86-2.66,2.08-5.93,3.41-9.81,4.02-.9,.13-1.84,.23-2.81,.3-.97,.07-1.81,.1-2.51,.1h-19.63v26.71h-8.94Zm8.94-35.19h19.33c.64,0,1.36-.03,2.18-.1,.82-.07,1.6-.18,2.34-.35,2.31-.54,4.18-1.51,5.62-2.94,1.44-1.42,2.5-3.09,3.19-5.02,.69-1.92,1.03-3.89,1.03-5.9s-.34-3.97-1.03-5.9c-.69-1.92-1.75-3.6-3.19-5.02-1.44-1.42-3.31-2.4-5.62-2.94-.74-.17-1.52-.28-2.34-.35-.82-.07-1.55-.1-2.18-.1h-19.33v28.62Z"/><path class="cls-1" d="M1232.1,446.26v-72.3h8.94v72.3h-8.94Z"/><path class="cls-1" d="M1263.03,446.26v-72.3h9.04l37.7,56.48v-56.48h9.04v72.3h-9.04l-37.7-56.53v56.53h-9.04Z"/><path class="cls-1" d="M1369.06,447.77c-4.95,0-9.47-.86-13.55-2.58-4.08-1.72-7.6-4.22-10.54-7.48-2.95-3.26-5.21-7.22-6.8-11.87-1.59-4.65-2.39-9.89-2.39-15.72,0-7.7,1.37-14.36,4.12-19.98,2.74-5.62,6.61-9.97,11.6-13.03,4.99-3.06,10.84-4.59,17.57-4.59,8.1,0,14.63,1.89,19.58,5.67,4.95,3.78,8.37,8.92,10.24,15.41l-9.04,1.86c-1.54-4.35-4.03-7.83-7.46-10.44-3.43-2.61-7.72-3.93-12.88-3.97-5.39-.03-9.87,1.17-13.43,3.62-3.57,2.44-6.25,5.86-8.06,10.24s-2.73,9.46-2.76,15.21c-.03,5.76,.85,10.81,2.66,15.16,1.81,4.35,4.51,7.76,8.11,10.22,3.6,2.46,8.09,3.71,13.48,3.74,4.65,.03,8.56-.85,11.72-2.66,3.16-1.81,5.62-4.41,7.38-7.81,1.76-3.4,2.82-7.51,3.19-12.33h-15.36v-7.38h24.8c.1,.67,.16,1.46,.17,2.39,.02,.92,.03,1.55,.03,1.88,0,6.59-1.23,12.49-3.69,17.7-2.46,5.21-6.09,9.3-10.89,12.27-4.8,2.98-10.74,4.47-17.8,4.47Z"/></g></svg>